<svg width="22" height="22" viewBox="0 0 22 22" fill="none" xmlns="http://www.w3.org/2000/svg">
<path d="M10.542 1.60352C15.4679 1.60352 19.4793 5.61513 19.4795 10.541C19.4795 15.4671 15.468 19.4785 10.542 19.4785C5.6161 19.4783 1.60449 15.4669 1.60449 10.541C1.60467 5.61524 5.61621 1.60369 10.542 1.60352ZM10.542 2.0625C5.86128 2.06268 2.06365 5.87015 2.06348 10.541C2.06348 15.212 5.86117 19.0203 10.542 19.0205C15.223 19.0205 19.0215 15.2121 19.0215 10.541C19.0213 5.87004 15.2229 2.0625 10.542 2.0625Z" fill="#959FA7" stroke="#959FA7" stroke-width="0.916667"/>
<path d="M20.167 20.8545C19.9928 20.8545 19.8186 20.7903 19.6811 20.6528L17.8478 18.8195C17.582 18.5536 17.582 18.1136 17.8478 17.8478C18.1136 17.582 18.5536 17.582 18.8195 17.8478L20.6528 19.6811C20.9186 19.947 20.9186 20.387 20.6528 20.6528C20.5153 20.7903 20.3411 20.8545 20.167 20.8545Z" fill="#959FA7"/>
</svg>
